{"title":"Dark Blue 1x07 [HDTV + AC3 + Spanish]","uid":5587580,"size":464796460,"categoryP":"video","categoryS":"hd___tv_shows","magnet":"?xt=urn:btih:481e0d16ac9e1a9311dfa5ad01aa65e68edcc0a0&amp;dn=Dark+Blue+1x07+%5BHDTV+%2B+AC3+%2B+Spanish%5D&amp;tr=udp%3A%2F%2Ftracker.openbittorrent.com%3A80&amp;tr=udp%3A%2F%2Fopen.demonii.com%3A1337&amp;tr=udp%3A%2F%2Ftracker.coppersurfer.tk%3A6969&amp;tr=udp%3A%2F%2Fexodus.desync.com%3A6969","seeders":0,"leechers":1,"uploader":"fleqii","files":1,"time":1274751909,"description":"C:UsersJoelContactsDark Blue 1x07 [AC3 + Spanish].mkv\n   General\n      Complete name : C:UsersJoelContactsDark Blue 1x07 [AC3 + \n\nSpanish].mkv\n      Format : Matroska\n      File size : 443 MiB\n      Duration : 40mn 44s\n      Overall bit rate : 1 521 Kbps\n      Encoded date : UTC 2010-05-24 22:36:09\n      Writing application : VirtualDubMod 1.5.10.2 (build 2540/release)\n      Writing library : libebml-0.7.5 &amp; libmatroska-0.7.7\n   Video #1\n      ID : 1\n      Format : MPEG-4 Visual\n      Format profile : AdvancedSimple@L5\n      Format settings, BVOP : Yes\n      Format settings, QPel : No\n      Format settings, GMC : No warppoints\n      Format settings, Matrix : Default (H.263)\n      Codec ID : XVID\n      Codec ID/Hint : XviD\n      Duration : 40mn 44s\n      Bit rate : 1 043 Kbps\n      Width : 624 pixels\n      Height : 352 pixels\n      Display aspect ratio : 16:9\n      Frame rate : 25.000 fps\n      Resolution : 24 bits\n      Colorimetry : 4:2:0\n      Scan type : Progressive\n      Bits/(Pixel*Frame) : 0.190\n      Stream size : 304 MiB (69%)\n      Writing library : XviD 1.2.1 (UTC 2008-12-04)\n   Audio #2\n      ID : 2\n      Format : AC-3\n      Format/Info : Audio Coding 3\n      Codec ID : A_AC3\n      Duration : 40mn 44s\n      Bit rate mode : Constant\n      Bit rate : 448 Kbps\n      Channel(s) : 2 channels\n      Channel positions : L R\n      Sampling rate : 48.0 KHz\n      Stream size : 131 MiB (29%)","torrent":{"xt":"urn:btih:481e0d16ac9e1a9311dfa5ad01aa65e68edcc0a0","amp;dn":"Dark+Blue+1x07+%5BHDTV+%2B+AC3+%2B+Spanish%5D","amp;tr":["udp%3A%2F%2Ftracker.openbittorrent.com%3A80","udp%3A%2F%2Fopen.demonii.com%3A1337","udp%3A%2F%2Ftracker.coppersurfer.tk%3A6969","udp%3A%2F%2Fexodus.desync.com%3A6969"],"infoHash":"481e0d16ac9e1a9311dfa5ad01aa65e68edcc0a0","infoHashBuffer":{"type":"Buffer","data":[72,30,13,22,172,158,26,147,17,223,165,173,1,170,101,230,142,220,192,160]},"announce":[],"urlList":[]}}